<svg width="50" height="50" viewBox="0 0 50 50" fill="none" xmlns="http://www.w3.org/2000/svg">
<path d="M25 50C21.5417 50 18.2917 49.3433 15.25 48.03C12.2083 46.7167 9.5625 44.9358 7.3125 42.6875C5.0625 40.4375 3.28167 37.7917 1.97 34.75C0.658334 31.7083 0.00166667 28.4583 0 25C0 21.5417 0.656667 18.2917 1.97 15.25C3.28333 12.2083 5.06417 9.5625 7.3125 7.3125C9.5625 5.0625 12.2083 3.28167 15.25 1.97C18.2917 0.658334 21.5417 0.00166667 25 0C28.4583 0 31.7083 0.656667 34.75 1.97C37.7917 3.28333 40.4375 5.06417 42.6875 7.3125C44.9375 9.5625 46.7192 12.2083 48.0325 15.25C49.3458 18.2917 50.0017 21.5417 50 25C50 28.4583 49.3433 31.7083 48.03 34.75C46.7167 37.7917 44.9358 40.4375 42.6875 42.6875C40.4375 44.9375 37.7917 46.7192 34.75 48.0325C31.7083 49.3458 28.4583 50.0017 25 50ZM25.5 27.5L23.25 29.75C22.7917 30.2083 22.5625 30.7917 22.5625 31.5C22.5625 32.2083 22.7917 32.7917 23.25 33.25C23.7083 33.7083 24.2917 33.9375 25 33.9375C25.7083 33.9375 26.2917 33.7083 26.75 33.25L33.25 26.75C33.75 26.25 34 25.6667 34 25C34 24.3333 33.75 23.75 33.25 23.25L26.75 16.75C26.2917 16.2917 25.7083 16.0625 25 16.0625C24.2917 16.0625 23.7083 16.2917 23.25 16.75C22.7917 17.2083 22.5625 17.7917 22.5625 18.5C22.5625 19.2083 22.7917 19.7917 23.25 20.25L25.5 22.5H17.5C16.7917 22.5 16.1975 22.74 15.7175 23.22C15.2375 23.7 14.9983 24.2933 15 25C15 25.7083 15.24 26.3025 15.72 26.7825C16.2 27.2625 16.7933 27.5017 17.5 27.5H25.5Z" fill="#CC34AE"/>
</svg>
