<svg width="60" height="60" viewBox="0 0 60 60" fill="none" xmlns="http://www.w3.org/2000/svg">
<path d="M29.5 32.5H37.5C38.2083 32.5 38.8025 32.26 39.2825 31.78C39.7625 31.3 40.0017 30.7067 40 30C40 29.2917 39.76 28.6975 39.28 28.2175C38.8 27.7375 38.2067 27.4983 37.5 27.5H29.5L31.75 25.25C32.2083 24.7917 32.4375 24.2083 32.4375 23.5C32.4375 22.7917 32.2083 22.2083 31.75 21.75C31.2917 21.2917 30.7083 21.0625 30 21.0625C29.2917 21.0625 28.7083 21.2917 28.25 21.75L21.75 28.25C21.25 28.75 21 29.3333 21 30C21 30.6667 21.25 31.25 21.75 31.75L28.25 38.25C28.7083 38.7083 29.2917 38.9375 30 38.9375C30.7083 38.9375 31.2917 38.7083 31.75 38.25C32.2083 37.7917 32.4375 37.2083 32.4375 36.5C32.4375 35.7917 32.2083 35.2083 31.75 34.75L29.5 32.5ZM30 55C26.5417 55 23.2917 54.3433 20.25 53.03C17.2083 51.7167 14.5625 49.9358 12.3125 47.6875C10.0625 45.4375 8.28167 42.7917 6.97 39.75C5.65833 36.7083 5.00167 33.4583 5 30C5 26.5417 5.65667 23.2917 6.97 20.25C8.28333 17.2083 10.0642 14.5625 12.3125 12.3125C14.5625 10.0625 17.2083 8.28167 20.25 6.97C23.2917 5.65833 26.5417 5.00167 30 5C33.4583 5 36.7083 5.65667 39.75 6.97C42.7917 8.28333 45.4375 10.0642 47.6875 12.3125C49.9375 14.5625 51.7192 17.2083 53.0325 20.25C54.3458 23.2917 55.0017 26.5417 55 30C55 33.4583 54.3433 36.7083 53.03 39.75C51.7167 42.7917 49.9358 45.4375 47.6875 47.6875C45.4375 49.9375 42.7917 51.7192 39.75 53.0325C36.7083 54.3458 33.4583 55.0017 30 55Z" fill="#CC34AE"/>
</svg>
